<svg xmlns="http://www.w3.org/2000/svg" width="1420" height="200" fill="none" viewBox="0 0 1420 200">
    <path fill="#fff" d="M785.65 90c20.627 0 37.715 17.447 40.622 40.145.725-.075 1.46-.123 2.2-.123 14.19 0 25.748 13.794 26.064 30.926 2.372-1.518 5.093-2.386 8-2.386 9.083 0 16.464 8.452 16.464 18.853 0 10.401-9.293 21.803-18.376 21.803-76.983.283-128.13 1.167-204.848.592-10.33 0-19.776-5.608-19.776-17.437 0-11.823 8.386-21.425 18.716-21.425 2.692 0 5.246.655 7.562 1.827 4.191-7.946 11.8-13.266 20.497-13.266 3.423 0 6.688.831 9.637 2.316 1.642-12.062 10.758-21.318 21.752-21.318 8.679 0 16.191 5.762 19.776 14.123 3.21-2.172 6.875-3.568 10.786-3.946-.084-1.214-.13-2.428-.13-3.669 0-25.952 18.395-47.015 41.054-47.015z"/>
    <path fill="#fff" fill-opacity=".7" d="M93.35 90c-20.627 0-37.715 17.447-40.622 40.145-.725-.075-1.46-.123-2.2-.123-14.19 0-25.748 13.794-26.064 30.926-2.372-1.518-5.093-2.386-8-2.386C7.382 158.562 0 167.014 0 177.415c0 10.401 9.293 21.803 18.376 21.803 76.983.283 128.13 1.167 204.848.592 10.33 0 19.776-5.608 19.776-17.437 0-11.823-8.386-21.425-18.716-21.425-2.692 0-5.246.655-7.562 1.827-4.191-7.946-11.8-13.266-20.497-13.266-3.423 0-6.688.831-9.637 2.316-1.642-12.062-10.758-21.318-21.752-21.318-8.679 0-16.191 5.762-19.776 14.123-3.21-2.172-6.875-3.568-10.786-3.946.084-1.214.13-2.428.13-3.669C134.404 111.063 116.009 90 93.35 90z"/>
    <path fill="#fff" fill-opacity=".5" d="M1051.53 30c40.32 0 73.72 26.963 79.4 62.042 1.42-.115 2.86-.19 4.3-.19 27.74 0 50.33 21.318 50.95 47.795 4.64-2.345 9.95-3.687 15.64-3.687 17.75 0 32.18 13.062 32.18 29.136 0 16.074-18.16 33.696-35.92 33.696-150.48.436-250.46 1.802-400.423.914-20.192 0-38.657-8.667-38.657-26.947 0-18.272 16.392-33.112 36.584-33.112 5.264 0 10.255 1.013 14.783 2.823 8.191-12.28 23.065-20.502 40.066-20.502 6.691 0 13.073 1.284 18.837 3.58 3.209-18.642 21.028-32.947 42.521-32.947 16.964 0 31.647 8.906 38.656 21.828 6.273-3.358 13.438-5.515 21.083-6.099-.163-1.876-.254-3.753-.254-5.671 0-40.107 35.954-72.659 80.254-72.659z"/>
    <path fill="#fff" fill-opacity=".7" d="M1304.75 90c25.47 0 46.56 17.447 50.15 40.145.9-.075 1.81-.123 2.72-.123 17.52 0 31.79 13.794 32.18 30.926 2.93-1.518 6.28-2.386 9.87-2.386 11.22 0 20.33 8.452 20.33 18.853 0 10.401-11.47 21.803-22.69 21.803-95.04.283-158.18 1.167-252.9.592-12.75 0-24.41-5.608-24.41-17.437 0-11.823 10.35-21.425 23.11-21.425 3.32 0 6.47.655 9.33 1.827 5.18-7.946 14.57-13.266 25.31-13.266 4.22 0 8.25.831 11.89 2.316 2.03-12.062 13.29-21.318 26.86-21.318 10.71 0 19.99 5.762 24.41 14.123 3.97-2.172 8.49-3.568 13.32-3.946-.1-1.214-.16-2.428-.16-3.669 0-25.952 22.71-47.015 50.68-47.015z"/>
    <path fill="#fff" fill-opacity=".4" d="M343.603 0c-44.99 0-82.259 31.721-88.599 72.99-1.583-.135-3.185-.222-4.798-.222-30.95 0-56.158 25.079-56.848 56.229-5.173-2.76-11.108-4.338-17.448-4.338-19.811 0-35.91 15.367-35.91 34.278 0 18.911 20.268 39.642 40.079 39.642 167.906.513 279.461 2.12 446.788 1.075 22.53 0 43.133-10.197 43.133-31.702 0-21.497-18.29-38.955-40.82-38.955-5.873 0-11.443 1.191-16.494 3.321-9.14-14.447-25.736-24.12-44.705-24.12-7.467 0-14.588 1.51-21.019 4.212-3.581-21.932-23.463-38.761-47.444-38.761-18.929 0-35.312 10.477-43.133 25.68-6.999-3.951-14.993-6.488-23.524-7.176.182-2.208.284-4.415.284-6.672C433.145 38.296 393.025 0 343.603 0z"/>
    <path fill="#fff" d="M135.019 150c-10.61 0-19.4 7.93-20.895 18.248-.374-.034-.752-.056-1.132-.056-7.3 0-13.245 6.27-13.408 14.057-1.22-.69-2.62-1.084-4.115-1.084-4.672 0-8.469 3.841-8.469 8.569 0 4.728 4.78 9.911 9.453 9.911 39.6.128 65.91.53 105.374.268 5.314 0 10.173-2.549 10.173-7.925 0-5.374-4.314-9.739-9.627-9.739-1.386 0-2.699.298-3.891.831-2.155-3.612-6.069-6.031-10.543-6.031-1.761 0-3.441.378-4.957 1.053-.845-5.483-5.534-9.69-11.19-9.69-4.464 0-8.328 2.619-10.173 6.42-1.651-.988-3.536-1.622-5.548-1.794.043-.552.067-1.104.067-1.668 0-11.796-9.462-21.37-21.119-21.37z"/>
</svg>
